<?xml version="1.0" encoding="utf-8"?>
<!-- Generator: Adobe Illustrator 24.3.0, SVG Export Plug-In . SVG Version: 6.00 Build 0)  -->
<svg version="1.1" id="Layer_1" xmlns="http://www.w3.org/2000/svg" xmlns:xlink="http://www.w3.org/1999/xlink" x="0px" y="0px"
	 viewBox="0 0 500 500" style="enable-background:new 0 0 500 500;" xml:space="preserve">
<style type="text/css">
	.st0{fill:#FFFFFF;}
	.st1{fill:#AD6327;}
	.st2{fill:#DB903E;}
	.st3{fill:#FBEFD9;}
	.st4{fill:#1E88A2;}
	.st5{fill:#F7E0BE;}
	.st6{fill:#FCC07D;}
	.st7{fill:#148AA4;}
	.st8{fill:#F1EFF1;}
	.st9{fill:#E8E4E2;}
	.st10{fill:#262827;}
	.st11{fill:#252827;}
	.st12{fill:#262727;}
	.st13{fill:#272729;}
	.st14{fill:#252729;}
	.st15{fill:#252525;}
	.st16{fill:#262627;}
	.st17{fill:#F0646B;}
	.st18{fill:#F29B58;}
	.st19{fill:#F19D57;}
	.st20{fill:#7BD2F6;}
	.st21{fill:#A2DDF5;}
	.st22{fill:#24272B;}
	.st23{fill:#EFEEED;}
	.st24{fill:#26292A;}
	.st25{fill:#262929;}
	.st26{fill:#45B9EA;}
	.st27{fill:#262928;}
	.st28{fill:#252728;}
	.st29{fill:#F0626A;}
	.st30{fill:#272628;}
	.st31{fill:#262424;}
	.st32{fill:#242422;}
	.st33{fill:#F39B57;}
	.st34{fill:#F29B57;}
	.st35{fill:#16889F;}
	.st36{fill:#1B8A9F;}
	.st37{fill:#158AA3;}
	.st38{fill:#FBCFC6;}
	.st39{fill:#FBF8F5;}
	.st40{fill:#F2808F;}
	.st41{fill:#6E5666;}
	.st42{fill:#EAEADA;}
	.st43{fill:#EAE9D8;}
	.st44{fill:#E8E8D6;}
	.st45{fill:#E9E9D8;}
	.st46{fill:#D0E9DD;}
	.st47{fill:#E9F5F1;}
	.st48{fill:#EDF6ED;}
	.st49{fill:#EAEAD8;}
	.st50{fill:#E6EBD7;}
	.st51{fill:#E6EAD5;}
	.st52{fill:#E8E7D1;}
	.st53{fill:#CDE9E0;}
	.st54{fill:#D1EAE0;}
	.st55{fill:none;stroke:#FBCFC6;stroke-width:0.4523;stroke-miterlimit:10;}
	.st56{fill:#0A75BA;}
	.st57{fill:#2276BC;}
	.st58{fill:#488C9D;}
	.st59{fill:#2B70B7;}
	.st60{fill:#316AB2;}
	.st61{fill:#7E987F;}
	.st62{fill:#FCD41D;}
	.st63{fill:#869A7D;}
	.st64{fill:none;stroke:#FFFFFF;stroke-width:2.5264;stroke-linecap:round;stroke-miterlimit:10;}
	.st65{fill:none;stroke:#FFFFFF;stroke-width:3.7235;stroke-linecap:round;stroke-miterlimit:10;}
	.st66{fill:#0B88A0;}
	.st67{fill:#FFFFFF;stroke:#FFFFFF;stroke-width:0.2444;stroke-miterlimit:10;}
	.st68{fill:none;}
	.st69{fill:#FCC180;}
	.st70{fill:#FCF2E8;}
	.st71{fill:#DE9238;}
	.st72{fill:#D37428;}
	.st73{fill:#D67B27;}
	.st74{fill:#EEF5E5;}
	.st75{fill:#DD9438;}
	.st76{fill:#0E89A0;}
	.st77{fill:#222123;}
	.st78{fill:#D57827;}
	.st79{fill:#212123;}
	.st80{fill:#865B6B;}
	.st81{fill:#232224;}
	.st82{fill:#F38799;}
	.st83{fill:#D57327;}
	.st84{fill:none;stroke:#1E88A2;stroke-width:0.4071;stroke-miterlimit:10;}
	.st85{fill:url(#SVGID_1_);}
	.st86{fill:url(#SVGID_2_);}
	.st87{fill:url(#SVGID_3_);}
	.st88{fill:url(#SVGID_4_);}
	.st89{fill:none;stroke:#DB903E;stroke-width:0.4358;stroke-linecap:round;stroke-miterlimit:10;}
	.st90{fill:#FAFBFB;}
	.st91{fill:#100B0A;}
	.st92{fill:#060606;}
	.st93{fill:#EBECD2;}
	.st94{fill:#EBEBD3;}
	.st95{fill:#EAECD0;}
	.st96{fill:#F3B58E;}
	.st97{fill:#F5B38D;}
	.st98{fill:#F1B58E;}
	.st99{fill:#F4B48F;}
	.st100{fill:#F3B38E;}
	.st101{fill:#F3B492;}
	.st102{fill:#5B5B46;}
	.st103{fill:#3C3B2A;}
	.st104{fill:#E5E6DB;}
	.st105{fill:#E8E8D2;}
	.st106{fill:#41412E;}
	.st107{fill:#E0E4D5;}
	.st108{fill:#1E0F0C;}
	.st109{fill:#23100A;}
	.st110{fill:#100B0C;}
	.st111{fill:#210F0C;}
	.st112{fill:#1F0F0C;}
	.st113{fill:#2F1812;}
	.st114{fill:#0E0A0A;}
	.st115{fill:#220F0D;}
	.st116{fill:#F5B38E;}
	.st117{fill:#F0B491;}
	.st118{fill:#EAEBD4;}
	.st119{fill:#F5B38C;}
	.st120{fill:#EBB493;}
	.st121{fill:#E7E8D6;}
	.st122{opacity:0.2;fill:#606060;}
	.st123{opacity:0.1;clip-path:url(#SVGID_6_);fill:#FFFFFF;}
	.st124{opacity:0.05;clip-path:url(#SVGID_6_);fill:#FFFFFF;}
	.st125{fill:none;stroke:#FFFFFF;stroke-width:3.1855;stroke-miterlimit:10;}
	.st126{fill:none;stroke:#FFFFFF;stroke-width:1.0618;stroke-linecap:round;stroke-linejoin:round;stroke-miterlimit:10;}
	.st127{opacity:0.1;fill:#606060;}
	.st128{fill:#392514;}
	.st129{fill:#DFDCE0;}
	.st130{fill:#26282C;}
	.st131{fill:#EF565E;}
	.st132{fill:#25282B;}
	.st133{fill:#EE4549;}
	.st134{fill:#84B7E2;}
	.st135{fill:#30302F;}
	.st136{fill:#313030;}
	.st137{fill:#26292C;}
	.st138{fill:#F4B06D;}
	.st139{fill:#FCC07C;}
	.st140{fill:#E9557A;}
	.st141{fill:#EFEEEE;}
	.st142{fill:#FBBB76;}
	.st143{fill:#FBBB75;}
	.st144{fill:#F59F59;}
	.st145{fill:#020303;}
	.st146{fill:#030504;}
	.st147{fill:#D48837;}
	.st148{fill:#D48938;}
	.st149{fill:#AD6428;}
	.st150{fill:#F49E58;}
	.st151{fill:#EE4451;}
	.st152{fill:#E23A40;}
	.st153{fill:#AB6227;}
	.st154{fill:#AC6227;}
	.st155{fill:#FAB26D;}
	.st156{fill:#0C0C0C;}
	.st157{fill:#191B1F;}
	.st158{fill:#0A0D0C;}
	.st159{fill:#181313;}
	.st160{fill:#1E100D;}
	.st161{fill:#200F0C;}
	.st162{fill:#F8B78A;}
	.st163{fill:#F8B78B;}
	.st164{fill:#F5B88A;}
	.st165{fill:#475E60;}
	.st166{fill:#F9FAE7;}
	.st167{fill:#465E60;}
	.st168{fill:#475F5C;}
	.st169{fill:#A7AAA4;}
	.st170{fill:#2B2726;}
	.st171{fill:#F6B78A;}
	.st172{fill:#0D0D0D;}
	.st173{fill:#101010;}
	.st174{fill:#111215;}
	.st175{fill:#131418;}
	.st176{fill:#090808;}
	.st177{fill:#090A08;}
	.st178{fill:#2F130F;}
	.st179{fill:#2B120D;}
	.st180{fill:#2D120E;}
	.st181{fill:#2E130F;}
	.st182{fill:#512D19;}
	.st183{fill:#2F130E;}
	.st184{fill:#401E15;}
	.st185{fill:#3A1D13;}
	.st186{fill:#3E190F;}
	.st187{fill:#0C1415;}
	.st188{fill:#0A1212;}
	.st189{fill:#0B1213;}
	.st190{fill:#292920;}
	.st191{fill:#1F1E17;}
	.st192{fill:#1C1B14;}
	.st193{fill:#12120E;}
	.st194{fill:#161610;}
	.st195{fill:#191911;}
	.st196{fill:#191812;}
	.st197{fill:#0A1313;}
	.st198{fill:#0C1515;}
	.st199{fill:#0B1312;}
	.st200{fill:#2B120E;}
	.st201{fill:#3B190F;}
	.st202{fill:#FBFCFC;}
	.st203{fill:#495D5C;}
	.st204{fill:#485D5B;}
	.st205{fill:#4B5D5C;}
	.st206{fill:#475E5C;}
	.st207{fill:#18100D;}
	.st208{fill:#3C2319;}
	.st209{fill:#091212;}
	.st210{fill:#13211D;}
	.st211{fill:#432719;}
	.st212{fill:#080E0C;}
	.st213{fill:#F3F5F2;}
	.st214{fill:#070D0B;}
	.st215{fill:#F5F3F2;}
	.st216{fill:#2B9BAD;}
	.st217{fill:#D89552;}
	.st218{fill:#FDFDFD;}
	.st219{fill:#F89E45;}
	.st220{opacity:0.2;fill:#404041;}
	.st221{fill:#F5E2AC;}
	.st222{fill:#4B4254;}
	.st223{fill:#E5833F;}
	.st224{fill:#B69A8F;}
	.st225{fill:#927D74;}
	.st226{fill:#40511B;}
	.st227{fill:#40521A;}
	.st228{fill:#FEFEFE;}
	.st229{fill:#D9A26B;}
	.st230{fill:#D9A26C;}
	.st231{fill:#101318;}
	.st232{fill:none;stroke:#101318;stroke-width:0.2581;stroke-linecap:round;stroke-linejoin:round;stroke-miterlimit:10;}
	.st233{fill:none;stroke:#FFFFFF;stroke-width:0.8524;stroke-linecap:round;stroke-miterlimit:10;}
	.st234{fill:none;stroke:#FFFFFF;stroke-width:0.4262;stroke-linecap:round;stroke-miterlimit:10;}
	.st235{fill:none;stroke:#101318;stroke-width:0.505;stroke-linecap:round;stroke-linejoin:round;stroke-miterlimit:10;}
	.st236{fill:#EFEBDC;}
	.st237{fill:none;stroke:#101318;stroke-width:2.0202;stroke-linecap:round;stroke-linejoin:round;stroke-miterlimit:10;}
	.st238{opacity:0.2;fill:#101318;}
	.st239{fill:none;stroke:#101318;stroke-width:0.3857;stroke-linecap:round;stroke-linejoin:round;stroke-miterlimit:10;}
	.st240{fill:#F18E61;}
	.st241{fill:#FC9900;}
</style>
<g>
	<g>
		<path class="st4" d="M374.97,207.97c-0.36-5.64-0.68-11.26-1.02-16.9c-0.39-6.52-0.8-13.05-1.19-19.57
			c-1.67,2.67-3.31,5.31-3.22,8.34c0.34,12.34,2.09,24.61,1.92,37.71C373.95,214.3,375.2,211.43,374.97,207.97z"/>
		<path class="st4" d="M373.85,158.31c-5.15,2.57-9.86,4.85-14.49,7.28c-1.46,0.77-1.78,2.3-1.8,4.28c4.91-2.42,9.48-4.6,13.97-6.9
			C373.08,162.17,373.62,160.65,373.85,158.31z"/>
	</g>
	<g>
		<path class="st4" d="M187.53,209.43c-0.43-0.88-0.81-2.21-1.77-2.26c-1.34-0.06-1.25,1.57-1.78,2.46
			c-1.33,2.25-0.86,4.17,0.68,6.32c2.3,3.21,2.05,3.84-1.34,5.84c-1.42,0.83-2.97,1.46-4.53,2.03c-8.74,3.17-17.72,4.83-27.05,4.53
			c-3.21-0.17-6.42-0.28-9.62-0.52c-3.61-0.27-6.9-1.43-9.87-3.56c-3.35-2.42-4.16-5.14-2.5-8.94c0.31-0.71,0.66-1.41,1-2.1
			c0.28-0.57,0.92-1.19,0.26-1.77c-0.68-0.58-1.25,0.06-1.66,0.54c-3.11,3.54-5.23,7.41-3.99,12.37c1.4,5.56,5.55,8.13,10.64,9.28
			c15.55,3.54,30.61,1.85,45-4.92C189.38,224.79,191.61,217.7,187.53,209.43z"/>
		<path class="st4" d="M160.73,175.31c-5.27,2.66-9.99,4.97-14.65,7.41c-1.58,0.82-1.67,2.47-1.8,4.4
			c4.31-2.24,8.21-4.49,12.31-6.28C158.84,179.84,160.14,178.49,160.73,175.31z"/>
		<path class="st4" d="M155.3,208.13c-1.19,0.04-2.21-0.58-2.92-1.33c-2.64-2.76-3.79-1.05-5.31,1.29c-1.91,2.92,1.03,3.14,2.1,4.37
			c1.35,1.55,2.31,0.8,3.29-0.59c0.68-0.98,1.13-2.55,2.92-2.06c0.56,0.5,1.09,1.05,1.71,1.48c1.23,0.84,2.56,2.8,3.8,0.11
			c0.8-1.73,3.72-3.37,0.11-5.49C157.59,203.91,157.72,203.69,155.3,208.13z"/>
	</g>
	<g>
		<path class="st4" d="M290.11,89.05c-1.79,3.6-3.54,6.6-0.49,10.02c1.78,1.98,1.3,3.82-1.1,5.09c-0.98,0.52-1.89,1.18-2.9,1.62
			c-12.36,5.38-25.27,6.56-38.45,4.39c-9.11-1.5-11.45-5.89-8.35-14.44c0.2-0.56,0.48-1.06-0.07-1.45c-0.56-0.39-0.98,0.04-1.43,0.4
			c-4.19,3.37-5.52,16.52,1.23,19.64c1.8,0.83,3.54,1.85,5.5,2.3c14.27,3.21,28.01,1.55,41.16-4.7
			C294.54,107.46,296.35,98.86,290.11,89.05z"/>
		<path class="st4" d="M267.44,69.88c-4.34,2.17-8.53,4.4-12.84,6.39c-1.97,0.91-2.69,2.34-3.16,4.65
			C262.4,77.25,267.21,73.93,267.44,69.88z"/>
		<path class="st4" d="M259.09,127.67c-0.13,1.99,2.42,3.36,3.91,3.31c1.82-0.06,2.2-2.71,3.5-4.42c-1.42-1.29-2.87-3-4.57-2.91
			C260.09,123.76,259.18,126.28,259.09,127.67z"/>
	</g>
	<g>
		<path class="st0" d="M361,385c0.35,6.83,1,13.78-0.68,20.51c-2.16,8.67-7.03,15.06-16.12,17.43c-0.12,3.12-2.49,4.73-4.55,6.42
			c-1.46,1.2-3.14,0.92-4.64-0.43c-1.45-1.3-2.44-3.14-4.38-3.87c-35.58,0.01-71.15,0.02-106.73,0.03c-2.41,0-4.82-0.03-7.22-0.05
			c0,0,0,0,0-0.01c0,0,0,0,0,0.01c-1.69,0.52-2.49,2.07-3.65,3.19c-2.52,2.44-4.14,2.48-6.61-0.07c-1.47-1.52-3.08-2.95-3.37-5.23
			c-7.67-2.05-12.87-7.08-15.06-14.44c-3.02-10.17-3.17-20.75-0.12-30.87c2.94-9.74,10.6-14.78,20.44-16.61
			c2.17-0.4,4.37-0.43,6.58-0.41c-6.86-4.65-14.1-8.69-21.1-13.12c-1.91-1.21-3.86-2.36-5.77-3.58c-2.21-1.41-2.45-2.46-1.16-4.81
			c0.83-1.5,1.67-2.99,2.54-4.47c1.42-2.4,2.17-2.59,4.64-1.22c0.36,0.2,0.74,0.36,1.1,0.54c0.55-3.14,2.11-5.88,3.55-8.64
			c0.53-1.02,1.87-1.09,2.95-0.56c1.85,0.9,3.67,1.85,5.46,2.86c1.83,1.05,3.61,2.2,5.4,3.31c0.15,0,0.3,0,0.45-0.01
			c0.04-12.17,0.09-24.35,0.12-36.52c0.01-7.25,1.7-13.95,6.01-19.91c5.53-7.65,13.07-11.92,22.27-13.4
			c3.04-0.49,6.11-0.86,9.17-1.18c1.12-0.12,2.13-0.46,3.14-0.89c0.43-1.39,0.87-2.78,1.31-4.17c0.05-0.66,0.1-1.31,0.14-1.97
			c-1.57-1.31-3.15-2.61-4.7-3.94c-5.83-5.02-9.95-11.11-11.53-18.74c-0.29-1.37-1.09-1.99-2.33-2.54
			c-9.96-4.41-12.15-18.9-3.9-25.58c0.05-3.41,0.1-6.83,0.15-10.24c-0.05-7.13-0.57-14.28,0.28-21.4c1.2-10.12,8.62-18.17,20.6-19.6
			c7.3-0.88,14.63-1.53,21.98-1.21c6.63,0.29,13.32,0.26,19.86,1.67c10.88,2.34,18.32,10.84,18.94,22.17
			c0.33,6.09,0.01,12.22-0.02,18.34c0.02,3.43,0.05,6.87,0.07,10.31c6,5.43,6.03,15.73,1.28,21.41c-1.78,2.12-4.03,3.49-6.4,4.75
			c-0.71,0.38-1.24,0.7-1.41,1.57c-2,9.96-7.82,17.2-16.18,22.61c-0.2,1.87,0.45,3.6,0.9,5.36c0.28,0.39,0.57,0.78,0.85,1.16
			c3.75,1.53,7.77,1.57,11.69,2.03c13.87,1.62,27.54,12.22,29.06,30.08c0.02,0.2,0.07,0.4,0.1,0.61c0.62,0.71,0.33,1.58,0.34,2.38
			c0.02,11.47,0.01,22.93,0.02,34.4c0,0.59-0.3,1.4,0.26,1.74c0.69,0.41,1.22-0.33,1.78-0.68c2.25-1.41,4.48-2.86,6.76-4.22
			c2.73-1.62,5.21-0.64,6.3,2.38c0.54,1.47,1.16,2.92,1.78,4.37c0.26,0.61,0.47,1.33,1.34,1.39c3.04-1.38,3.39-1.29,5.26,1.65
			c0.77,1.21,1.49,2.47,2.2,3.73c1.45,2.53,1.15,3.72-1.37,5.26c-8.03,4.92-16.06,9.81-24.09,14.73c-0.93,0.57-1.81,1.21-2.71,1.82
			c5.27-0.07,10.41,0.61,15.14,3.1C355.97,368.21,360.51,375.48,361,385z"/>
		<path class="st4" d="M334.57,329.44c0,1.43-0.47,2.32-1.64,3.04c-3.33,2.07-6.64,4.18-10.01,6.18c-2.02,1.2-2.74,0.84-2.78-1.51
			c-0.09-5.99-0.02-11.98-0.03-17.97c-0.01-4.95,0-9.91-0.01-14.87c0-0.96,0.03-1.94-0.47-2.82c-0.45-0.8-1.02-1.54-2.05-1.51
			c-1.09,0.03-1.72,0.76-2.09,1.72c-0.43,1.12-0.39,2.3-0.39,3.47c0,11.56-0.07,23.13,0.05,34.69c0.03,2.61-0.9,4.12-3.12,5.44
			c-11.23,6.7-22.3,13.66-33.52,20.38c-1.18,0.71-2.33,1.46-3.4,2.34c-1,0.83-1.91,0.77-2.99,0.07
			c-12.1-7.78-24.44-15.18-36.75-22.61c-2.32-1.4-3.33-3.01-3.3-5.79c0.14-11.63,0.06-23.26,0.05-34.9c0-1.1,0.11-2.22-0.43-3.24
			c-0.43-0.82-1.04-1.51-2.04-1.53c-1.02-0.02-1.6,0.7-2.02,1.53c-0.55,1.09-0.51,2.27-0.51,3.44c-0.01,10.12,0.01,20.24-0.02,30.35
			c0,1.31,0.56,3.03-0.75,3.8c-0.01,0-0.02,0.01-0.04,0.02c-0.04,0.02-0.08,0.04-0.12,0.06c-1.23,0.57-2.28-0.8-3.34-1.4
			c-2.81-1.61-5.51-3.38-8.28-5.06c-0.72-0.44-1.69-0.74-1.64-1.88c0.04-12.17,0.09-24.35,0.12-36.52
			c0.01-7.25,1.7-13.95,6.01-19.91c5.53-7.65,13.07-11.92,22.27-13.4c3.04-0.49,6.11-0.86,9.17-1.18c1.12-0.12,2.13-0.46,3.14-0.89
			c4.57,5.73,9.68,10.98,14.55,16.45c0.45,0.51,0.81,1.06,0.95,1.73c0.02,0.09,0.03,0.18,0.04,0.27c0,0.04,0,0.08,0,0.12
			c0.22,10.54,0.04,21.08,0.1,31.62c0,1.03-0.05,2.07,0.07,3.09c0.27,2.33,2.06,4.16,4.09,4.21c2.03,0.04,3.78-1.49,4.28-3.76
			c0.24-1.08,0.2-2.19,0.2-3.28v-29.26c0-1.02-0.04-2.03,0.08-3.04c0-0.01,0-0.03,0-0.04c0.01-0.1,0.02-0.2,0.04-0.29
			c0.15-0.8,0.62-1.44,1.2-2c3.79-3.68,7-7.89,10.75-11.6c1.31-1.3,2-3.11,3.52-4.24c3.75,1.53,7.77,1.57,11.69,2.03
			c13.87,1.62,27.54,12.22,29.06,30.08c0.02,0.2,0.07,0.4,0.1,0.61c0.25,0.59,0.13,1.22,0.13,1.83
			C334.53,305.49,334.51,317.47,334.57,329.44z"/>
		<path class="st6" d="M315.78,223.52c-1.78,2.12-4.03,3.49-6.4,4.75c-0.71,0.38-1.24,0.7-1.41,1.57c-2,9.96-7.82,17.2-16.18,22.61
			c-0.37,0.67-0.85,1.22-1.54,1.59c-4.97,2.66-10.16,4.3-15.89,4.4c-6.52,0.1-12.46-1.64-18.1-4.7c-0.43-0.23-0.81-0.51-1.14-0.87
			c-1.57-1.31-3.15-2.61-4.7-3.94c-5.83-5.02-9.95-11.11-11.53-18.74c-0.29-1.37-1.09-1.99-2.33-2.54
			c-9.96-4.41-12.15-18.9-3.9-25.58c1.41,0.12,2.16,1.08,2.8,2.17c0.67,1.13,1.07,2.38,1.62,3.56c0.27,0.58,0.34,1.58,1.17,1.47
			c0.76-0.1,0.69-1.08,0.88-1.71c0.22-0.72,0.36-1.47,0.47-2.21c0.65-4.35,1.36-8.69,1.27-13.11c-0.01-0.52-0.04-1.07,0.11-1.57
			c0.02-0.1,0.06-0.19,0.11-0.29c0.1-0.23,0.26-0.44,0.48-0.63c3.82-1.55,7.89-1.78,11.9-2.33c9.92-1.37,19.91-1,29.86-0.78
			c6.58,0.15,13.17,0.84,19.61,2.42c0.87,0.21,1.75,0.4,2.44,1.03c0.13,0.16,0.24,0.32,0.32,0.48c0.04,0.07,0.07,0.13,0.09,0.2
			c0.34,0.84,0.2,1.77,0.19,2.66c-0.03,4.89,0.88,9.66,1.95,14.4c0.17,0.77,0.26,1.63,1.04,2.28c0.93-0.83,1.03-2.05,1.47-3.08
			c0.56-1.32,0.97-2.72,1.89-3.85c0.55-0.68,1.08-1.47,2.18-1.07C320.5,207.54,320.53,217.84,315.78,223.52z"/>
		<path class="st4" d="M314.43,191.8c-0.34,0.63-0.93,0.86-1.56,0.72c-2.38-0.53-4.85-0.74-7.1-1.75c-0.14-0.07-0.29-0.14-0.43-0.21
			c-2.8-1.45-5.93-1.59-8.95-2.05c-11.52-1.75-23.14-1.66-34.73-1.19c-6.15,0.25-12.31,0.94-18.33,2.4
			c-0.66,0.16-1.29,0.46-1.93,0.69c-0.14,0.09-0.29,0.17-0.44,0.25c-2.16,1.16-4.61,1.3-6.96,1.73c-0.51,0.1-0.93-0.12-1.21-0.57
			c-0.05-7.13-0.57-14.28,0.28-21.4c1.2-10.12,8.62-18.17,20.6-19.6c7.3-0.88,14.63-1.53,21.98-1.21
			c6.63,0.29,13.32,0.26,19.86,1.67c10.88,2.34,18.32,10.84,18.94,22.17C314.79,179.55,314.46,185.68,314.43,191.8z"/>
		<path class="st7" d="M330.62,425.06c-35.58,0.01-71.15,0.02-106.73,0.03c-2.41,0-4.82-0.03-7.22-0.05c0,0,0,0,0-0.01
			c-0.6-1.23,0.53-1.75,1.1-2.34c5.88-6.06,11.6-12.27,17.43-18.37c5.87-6.16,11.65-12.4,17.58-18.51c0.38-0.39,0.71-0.83,1.19-1
			c0.05-0.02,0.1-0.03,0.15-0.05c0.15-0.04,0.33-0.05,0.52-0.02c2.76,0.96,4.96,2.91,7.5,4.27c2.85,1.52,5.47,3.42,8.28,5.02
			c2.04,1.16,3.97,1.21,6.03-0.01c4.25-2.53,8.48-5.08,12.68-7.71c0.81-0.51,1.54-1.17,2.54-1.31c0.2-0.02,0.4-0.02,0.58,0
			c0.16,0.02,0.31,0.05,0.46,0.1c0.7,0.23,1.25,0.76,1.8,1.3c4.79,4.62,9.1,9.71,13.87,14.35c2.16,2.11,4.06,4.47,6.23,6.56
			c5.13,4.96,9.69,10.48,14.87,15.39C330.08,423.27,331.16,423.84,330.62,425.06z"/>
		<path class="st8" d="M352.98,333.42c0.05,0.97-0.76,1.24-1.37,1.62c-13,8.01-26.04,15.99-39.03,24.02
			c-11.12,6.87-22.35,13.57-33.4,20.55c-3.76,2.38-7.29,2.24-11-0.09c-6.82-4.28-13.71-8.44-20.57-12.64
			c-12.21-7.47-24.33-15.08-36.57-22.51c-0.87-0.53-1.87-0.94-2.22-2.04c0-0.02-0.01-0.03-0.01-0.05c-0.03-0.13-0.05-0.26-0.05-0.4
			c-0.02-0.4,0.06-0.79,0.22-1.16c1.24-2.83,2.13-5.77,2.93-8.75c0.11-0.4,0.28-0.77,0.6-1.05c0.15,0,0.3,0,0.45-0.01
			c4.24,3.08,8.88,5.5,13.26,8.34c0.02,0.02,0.05,0.03,0.07,0.05c0.03-0.04,0.06-0.08,0.09-0.12c0.48-0.7,0.28-1.3,0.28-1.85
			c0.01-11.07,0-22.15,0-33.23c0-3.01,1.14-4.89,2.97-4.92c1.9-0.03,3.09,1.87,3.09,5.01c0,12.32,0.03,24.63-0.04,36.94
			c-0.01,1.51,0.48,2.3,1.74,3.06c12.21,7.4,24.4,14.82,36.5,22.38c1.99,1.25,3.09,1.48,5.3,0.07c11.16-7.14,22.45-14.08,33.9-20.75
			c3.43-2,4.73-4.1,4.61-8.15c-0.34-11.07-0.11-22.15-0.1-33.23c0-0.76-0.04-1.52,0.06-2.27c0.23-1.77,1.2-2.93,3.04-3.07
			c1.34-0.1,2.86,1.53,2.96,3.2c0.11,1.92,0.05,3.85,0.05,5.78c0,10.25,0,20.5,0,30.78c0.92,0.24,1.41-0.48,2-0.83
			c3.41-2.06,6.75-4.24,10.19-6.25c1.12-0.65,1.44-1.4,1.43-2.63c-0.04-11.69-0.02-23.39-0.02-35.09c0-0.83,0.06-1.65,0.09-2.47
			c0.62,0.71,0.33,1.58,0.34,2.38c0.02,11.47,0.01,22.93,0.02,34.4c0,0.59-0.3,1.4,0.26,1.74c0.69,0.41,1.22-0.33,1.78-0.68
			c2.25-1.41,4.48-2.86,6.76-4.22c2.73-1.62,5.21-0.64,6.3,2.38c0.54,1.47,1.16,2.92,1.78,4.37
			C351.91,332.65,352.11,333.37,352.98,333.42z"/>
		<path class="st1" d="M359.08,344.06c-8.03,4.92-16.06,9.81-24.09,14.73c-0.93,0.57-1.81,1.21-2.71,1.82
			c-0.58,1.01-1.63,1.45-2.55,2.02c-7.75,4.83-15.6,9.5-23.27,14.47c-0.91,0.59-1.91,1.02-2.82,1.61c-0.01,0.01-0.03,0.02-0.04,0.03
			c-0.1,0.05-0.19,0.11-0.29,0.16c-3.07,1.71-5.95,3.73-9,5.48c-0.52,0.31-1.05,0.57-1.61,0.73c-0.28,0.08-0.57,0.13-0.87,0.14
			c-5.19,3.16-10.38,6.32-15.58,9.49c-1.86,1.14-3.74,1.13-5.59,0.02c-4.45-2.68-8.89-5.37-13.33-8.05
			c-0.92-0.56-1.85-1.11-2.77-1.66c-0.2-0.07-0.4-0.15-0.6-0.24c-3.26-1.33-5.98-3.61-9.05-5.27c-0.43-0.23-0.82-0.53-1.24-0.78
			c-0.1-0.06-0.21-0.12-0.32-0.17c-0.06-0.03-0.12-0.06-0.19-0.09c-5.56-3.16-10.9-6.68-16.38-9.95c-3.54-2.12-6.95-4.43-10.5-6.53
			c-0.59-0.35-1.22-0.67-1.4-1.42c-6.86-4.65-14.1-8.69-21.1-13.12c-1.91-1.21-3.86-2.36-5.77-3.58c-2.21-1.41-2.45-2.46-1.16-4.81
			c0.83-1.5,1.67-2.99,2.54-4.47c1.42-2.4,2.17-2.59,4.64-1.22c0.36,0.2,0.74,0.36,1.1,0.54c1.9,0.29,3.28,1.6,4.87,2.5
			c2.55,1.45,4.99,3.1,7.52,4.59c0.43,0.25,0.87,0.5,1.21,0.85c0.17,0.18,0.32,0.38,0.43,0.63c10.15,6.29,20.29,12.6,30.46,18.87
			c9.48,5.84,19.05,11.53,28.45,17.49c3.9,2.47,7.29,2.49,11.26,0.04c24.06-14.92,48.22-29.69,72.34-44.52
			c0.46-0.28,0.87-0.64,1.31-0.97c3.04-1.38,3.39-1.29,5.26,1.65c0.77,1.21,1.49,2.47,2.2,3.73
			C361.9,341.33,361.59,342.52,359.08,344.06z"/>
		<path class="st4" d="M360.32,405.51c-2.16,8.67-7.03,15.06-16.12,17.43c-3.9-4.95-8.41-9.35-12.71-13.92
			c-6.11-6.49-12.11-13.1-18.36-19.46c-3.03-3.09-5.82-6.4-8.91-9.41c-0.37-0.36-0.83-0.71-0.9-1.25c-0.02-0.15,0-0.31,0.05-0.48
			c9.57-6.05,19.15-12.07,28.91-17.8c5.27-0.07,10.41,0.61,15.14,3.1c8.56,4.5,13.1,11.77,13.58,21.29
			C361.35,391.83,362,398.78,360.32,405.51z"/>
		<path class="st7" d="M243.67,378.77c-0.07,0.47-0.55,0.8-0.85,1.18c-2.6,3.21-5.48,6.17-8.35,9.1c-8.6,8.77-16.73,18-25.35,26.77
			c-2.18,2.22-4.37,4.49-6.08,7.13c-7.67-2.05-12.87-7.08-15.06-14.44c-3.02-10.17-3.17-20.75-0.12-30.87
			c2.94-9.74,10.6-14.78,20.44-16.61c2.17-0.4,4.37-0.43,6.58-0.41c9.27,5.72,18.54,11.44,27.82,17.15
			c0.22,0.14,0.51,0.18,0.76,0.26C243.65,378.31,243.7,378.55,243.67,378.77z"/>
		<path class="st2" d="M344.2,422.94c-0.12,3.12-2.49,4.73-4.55,6.42c-1.46,1.2-3.14,0.92-4.64-0.43c-1.45-1.3-2.44-3.14-4.38-3.87
			c-1.25-2.36-3.46-3.85-5.23-5.73c-7.88-8.34-15.87-16.56-23.82-24.84c-2.52-2.62-5.01-5.27-7.52-7.91
			c-0.62-0.65-1.24-1.29-2.22-1.34c0.14-0.08,0.28-0.17,0.41-0.25c3.71-2.2,7.41-4.4,11.12-6.59c0.09,0.1,0.19,0.19,0.28,0.29
			c6.08,6.44,12.16,12.88,18.24,19.32c6.74,7.14,13.47,14.29,20.2,21.43C343.04,420.47,343.73,421.63,344.2,422.94z"/>
		<path class="st2" d="M254.56,385.05c-2.33,1.51-3.94,3.77-5.82,5.73c-10.31,10.77-20.54,21.63-30.77,32.47
			c-0.5,0.53-1.17,0.97-1.31,1.79c0,0,0,0,0,0.01c-1.69,0.52-2.49,2.07-3.65,3.19c-2.52,2.44-4.14,2.48-6.61-0.07
			c-1.47-1.52-3.08-2.95-3.37-5.23c0.67-3.21,3.42-4.9,5.42-7.06c8.32-9.03,16.86-17.87,25.3-26.79c3.02-3.19,5.99-6.43,8.97-9.65
			c0.24-0.26,0.49-0.52,0.62-0.85c0.08-0.17,0.12-0.36,0.11-0.57v0c3.56,2.25,7.11,4.49,10.66,6.74
			C254.27,384.86,254.42,384.95,254.56,385.05z"/>
		<path class="st6" d="M293.54,258.96c-1.65,3.66-4.81,6.11-7.34,9.05c-2.49,2.91-5.17,5.66-7.77,8.48
			c-0.12,0.22-0.26,0.44-0.41,0.64c-2.1,2.89-6.39,3.75-8.82,0.44c-0.17-0.22-0.33-0.47-0.47-0.73c-4.32-4.8-8.63-9.58-12.94-14.39
			c-0.91-1.02-1.87-2.03-2.14-3.45c0.43-1.39,0.87-2.78,1.31-4.17c2.85,4.36,6.74,7.6,11.29,9.99c3.84,2.02,7.75,2.49,12.09,0.74
			c4.62-1.87,8.29-4.82,11.77-8.16c1.65-1.58,1.59-1.64,2.59,0.4C292.98,258.18,293.26,258.57,293.54,258.96z"/>
		<path class="st6" d="M292.69,257.8c-0.38-0.44-0.76-0.88-1.12-1.28c-4.38,4.99-9.5,8.78-16.01,10.48
			c-3.27,0.86-6.26-0.15-9.1-1.47c-4.28-1.98-7.65-5.21-10.87-8.6c-0.61-0.63-0.49-1.38-0.62-2.1c0.05-0.66,0.1-1.31,0.14-1.97
			c1.95,0.05,3.33,1.47,5.01,2.17c11.04,4.59,21.56,3.71,31.67-2.59C291.59,254.31,292.24,256.04,292.69,257.8z"/>
		<path class="st9" d="M212.49,330.92c-0.43,3.37-1.53,6.56-2.89,9.64c-0.29,0.66-0.39,1.28-0.43,1.95
			c-0.13-0.08-0.25-0.15-0.38-0.23c-4.55-2.78-9.1-5.56-13.66-8.34c0.55-3.14,2.11-5.88,3.55-8.64c0.53-1.02,1.87-1.09,2.95-0.56
			c1.85,0.9,3.67,1.85,5.46,2.86C208.92,328.65,210.7,329.81,212.49,330.92z"/>
		<path class="st10" d="M314.5,202.11c-1.69,0.58-2.25,2.1-2.88,3.54c-0.69,1.56-1.27,3.16-1.94,4.73c-0.17,0.4-0.33,1.02-0.89,0.97
			c-0.54-0.05-0.66-0.67-0.79-1.11c-1.03-3.34-1.69-6.77-2.17-10.22c-0.43-3.13-0.5-6.28-0.49-9.44c0.11,0,0.23,0,0.34,0
			c2.27,0.05,4.39,0.9,6.59,1.29c0.75,0.13,1.45,0.36,2.16-0.06C314.46,195.23,314.48,198.67,314.5,202.11z"/>
		<path class="st11" d="M239.36,208.97c-0.16,0.67-0.29,1.54-1,1.66c-0.8,0.13-0.99-0.83-1.29-1.39c-0.42-0.77-0.74-1.62-1.03-2.45
			c-0.68-1.9-1.59-3.61-3.38-4.71c0.05-3.41,0.1-6.83,0.15-10.24c2.23,0.26,4.29-0.65,6.42-1.01c0.63-0.11,1.21-0.43,1.86-0.43
			c0.11,0,0.22,0.01,0.33,0.03v0C241.62,196.7,240.79,202.87,239.36,208.97z"/>
		<path class="st0" d="M268.73,276.84c4.15,3.35,5.32,3.31,9.71-0.35c0.02,11.76,0.07,23.51,0.05,35.27c0,3.19-2.13,5.43-4.96,5.46
			c-2.72,0.03-4.86-2.37-4.85-5.52C268.69,300.08,268.71,288.46,268.73,276.84z"/>
		<path class="st12" d="M261.25,213.76c0.09,1.73-0.13,3.4-0.76,5.03c-0.57,1.47-1.54,2.44-3.1,2.64c-1.7,0.22-3.07-0.43-4.07-1.85
			c-1.55-2.23-1.68-8.4-0.19-10.68c0.9-1.37,2.2-2.02,3.84-1.9c1.61,0.12,2.84,0.82,3.56,2.36
			C261.19,210.77,261.3,212.24,261.25,213.76z"/>
		<path class="st13" d="M294.71,213.91c0.02,1.37,0,2.73-0.39,4.07c-0.54,1.84-1.45,3.26-3.56,3.43c-2.04,0.17-4.03-1.01-4.64-3
			c-0.89-2.88-0.82-5.81,0.11-8.68c0.56-1.71,1.75-2.75,3.66-2.74c2.07,0.01,3.49,1.04,4.35,2.87
			C294.84,211.15,294.7,212.55,294.71,213.91z"/>
		<path class="st14" d="M266.68,243.01c-0.85-1.05-1.88-1.98-2.36-3.31c-0.76-2.11-0.26-2.9,1.95-3.01
			c4.85-0.24,9.71,0.14,14.57-0.32c2.42-0.23,3.1,1.02,1.97,3.15c-0.67,1.26-1.39,2.5-2.56,3.39c-1.64-0.18-2.97-1.33-4.65-1.44
			c-2.29-0.14-4.5,0.01-6.58,1.07C268.28,242.9,267.56,243.34,266.68,243.01z"/>
		<path class="st15" d="M274.5,215c-0.16,2-0.85,3.72-1.42,5.47c-0.3,0.91-0.72,1.78-1.03,2.68c-1.46,4.15-1.12,4.66,3.34,4.93
			c0.93,0.06,1.9,0.04,1.92,1.3c0.02,1.28-1.1,1.35-1.91,1.39c-2,0.1-3.96-0.3-5.78-1.14c-1.35-0.62-1.88-1.8-1.55-3.24
			c0.97-4.14,2.64-8.04,4.23-11.96c0.28-0.69,0.78-1.45,1.7-1.13C274.89,213.62,274.26,214.52,274.5,215z"/>
		<path class="st15" d="M291.69,197.12c2.2,0.18,4.38,0.42,6.32,1.59c0.82,0.5,1.52,1.17,1.17,2.16c-0.4,1.14-1.47,0.83-2.3,0.6
			c-3.62-1-7.2-0.65-10.82,0.01c-1.23,0.22-3.13,1.02-3.59-0.68c-0.51-1.91,1.55-2.32,2.9-2.8
			C287.4,197.29,289.57,197.33,291.69,197.12z"/>
		<path class="st16" d="M256.46,197.35c1.85,0.09,3.73,0.11,5.5,0.7c1.04,0.35,2.27,0.86,1.98,2.21c-0.28,1.35-1.64,1.17-2.59,0.96
			c-3.87-0.87-7.64-0.2-11.42,0.52c-0.83,0.16-1.67,0.44-2.1-0.62c-0.41-1.02,0.2-1.76,0.92-2.28
			C251.09,197.16,253.76,197.12,256.46,197.35z"/>
		<path class="st17" d="M266.68,243.01c2.5-1.25,5.03-2.33,7.94-2.14c2.09,0.14,4.02,0.6,5.62,2.04c-2.94,3.41-8.55,4-12.17,1.28
			C267.59,243.82,267.15,243.4,266.68,243.01z"/>
		<path class="st18" d="M236.84,221.16c-4.27-1.48-6.09-8.3-3.13-11.2c0.43-0.42,0.81-1.01,1.54-0.79c0.77,0.23,1.06,0.96,1.1,1.6
			C236.57,214.21,236.69,217.65,236.84,221.16z"/>
		<path class="st19" d="M309.96,219c-0.11-2.7,0.93-5.1,0.12-7.59c-0.24-0.72,0.36-1.94,1-2.08c0.9-0.19,1.83,0.58,2.2,1.49
			c1.4,3.47,1.28,6.76-1.69,9.61c-0.39,0.37-0.83,0.9-1.4,0.64c-0.5-0.23-0.18-0.86-0.23-1.31
			C309.93,219.43,309.96,219.08,309.96,219z"/>
	</g>
</g>
</svg>
