<?xml version="1.0" encoding="utf-8"?>
<!-- Generator: Adobe Illustrator 24.3.0, SVG Export Plug-In . SVG Version: 6.00 Build 0)  -->
<svg version="1.1" id="Layer_1" xmlns="http://www.w3.org/2000/svg" xmlns:xlink="http://www.w3.org/1999/xlink" x="0px" y="0px"
	 viewBox="0 0 500 500" style="enable-background:new 0 0 500 500;" xml:space="preserve">
<style type="text/css">
	.st0{fill:#1E88A2;}
	.st1{fill:#DB903E;}
	.st2{fill:#2B9BAD;}
	.st3{fill:#D89552;}
</style>
<g>
	<path class="st1" d="M63.53,121.07c2.5-6.69,6.48-11.88,13.91-13.41c1.65-0.34,3.37-0.41,5.06-0.41
		c111.68-0.02,223.35-0.02,335.03-0.01c11.66,0,18.93,7.2,18.94,18.79c0.02,63.24,0.02,126.49,0,189.73c0,11.54-7.31,18.73-19,18.73
		c-42.85,0.02-85.7,0.01-128.55,0.01c-1.45,0-2.89,0-4.31,0c-0.9,7.75,7.51,17.39,15.13,17.47c7.53,0.07,15.05-0.04,22.58,0.04
		c3.77,0.04,6.23,2.35,6.32,5.64c0.09,3.3-2.35,5.93-6.01,5.94c-27.91,0.06-55.82,0.03-84,0.03c0-3.82,0-7.5,0-11.6
		c13.1,0,26.24,0,39.08,0c-2.1-5.76-4.1-11.26-6.31-17.34c-10.28,0-21.39,0-32.79,0c-0.34-4.01-0.64-7.69-0.99-11.85
		c1.57,0,2.99,0,4.41,0c57.54,0,115.08-0.11,172.61,0.1c9.86,0.04,10.99-3.46,9.86-11.76c-1.35,0-2.77,0-4.19,0
		c-60.82,0-121.63-0.02-182.45,0.05c-2.56,0-4.12-0.53-5.45-2.96c-1.6-2.95-3.96-5.48-6.21-8.5c66.07,0,132.08,0,198.62,0
		c0-1.69,0-2.97,0-4.25c0-56.08,0-112.16,0-168.24c0-6.7-1.69-8.4-8.35-8.4c-110.95,0-221.9,0-332.84,0c-6.74,0-8.43,1.66-8.43,8.31
		c0,54.02-0.02,108.03,0.05,162.05c0,2.69-0.44,4.37-3.22,5.59c-3.03,1.33-5.67,3.57-8.48,5.42
		C63.53,240.53,63.53,180.8,63.53,121.07z"/>
	<path class="st1" d="M63.53,327.21c0.45-1.98,0.85-3.97,1.35-5.94c1.93-7.6,6.26-13.3,13.45-16.65
		c14.06-6.55,28.05-13.28,42.26-19.5c4.1-1.79,8.82-2.66,13.32-2.94c7.5-0.47,15.06-0.44,22.57-0.01c4.27,0.24,8.76,1.01,12.64,2.72
		c14.54,6.37,28.92,13.12,43.25,19.94c7.67,3.65,11.93,10.11,13.37,18.38c0.56,3.21,0.88,6.51,0.89,9.77
		c0.09,17.48,0.05,34.96,0.06,52.44c0,0.36,0.01,0.73-0.01,1.09c-0.2,3.73-2.49,6.19-5.78,6.22c-3.3,0.03-5.69-2.42-5.84-6.12
		c-0.09-2.3-0.02-4.61-0.03-6.92c0-14.81,0.05-29.62-0.04-44.43c-0.02-3.38-0.28-6.8-0.77-10.14c-0.67-4.61-3.16-8.11-7.45-10.1
		c-13.84-6.45-27.66-12.95-41.61-19.17c-2.89-1.29-6.26-1.91-9.45-2.05c-6.78-0.3-13.61-0.37-20.38,0.02
		c-3.77,0.21-7.75,0.93-11.18,2.45c-13.52,5.97-26.86,12.36-40.28,18.57c-4.7,2.17-7.39,5.81-7.97,10.9
		c-0.4,3.49-0.68,7.01-0.7,10.51c-0.07,16.15-0.07,32.29,0,48.44c0.01,3.37-0.36,6.39-4.01,7.72c-3.54,1.29-5.63-0.97-7.67-3.27
		C63.53,368.48,63.53,347.84,63.53,327.21z"/>
	<path class="st1" d="M109.11,226.41c1.3-6.96,1.74-14.23,4.08-20.83c5.29-14.92,18.03-22.99,33.72-22.58
		c13.83,0.36,26.43,9.85,30.82,24.21c3.82,12.52,3.85,25.47,0.24,38.02c-4.86,16.87-19.1,26.31-36.29,25.07
		c-14.97-1.08-28.19-13.81-30.75-29.93c-0.72-4.52-0.74-9.16-1.08-13.74C109.6,226.56,109.35,226.49,109.11,226.41z M168.71,226.79
		c-0.11-0.01-0.23-0.02-0.34-0.02c0-2.67,0.11-5.34-0.02-8c-0.55-11.14-7.7-20.92-17.05-23.42c-13.22-3.54-26.34,4.46-28.52,18.62
		c-1.27,8.25-1.16,16.98-0.04,25.27c1.62,11.92,11.31,19.55,22.64,19.5c11-0.05,20.06-7.91,22.26-19.67
		C168.39,235.05,168.38,230.89,168.71,226.79z"/>
	<path class="st1" d="M304.8,173.97c0.71-4.52,0.89-9.21,2.23-13.54c3.49-11.36,13.27-18.3,24.82-18.24
		c11.25,0.06,20.94,7.15,24.36,18.4c2.59,8.52,2.55,17.34,0.38,25.89c-3.39,13.37-15.18,21.28-28.37,19.69
		c-12.37-1.49-22.14-12.58-22.8-25.92c-0.1-2.06-0.01-4.12-0.01-6.19C305.2,174.03,305,174,304.8,173.97z M346.4,174.31
		c-0.1-0.01-0.2-0.02-0.3-0.02c0-1.94,0.12-3.89-0.02-5.82c-0.6-7.98-6.24-14.2-13.17-14.61c-7.97-0.47-14.26,4.27-15.42,12.72
		c-0.73,5.32-0.62,10.95,0.26,16.25c1.25,7.53,6.94,11.83,13.97,11.8c6.81-0.03,12.12-4.4,13.78-11.68
		C346.12,180.15,346.11,177.2,346.4,174.31z"/>
	<path class="st1" d="M300.7,203.08c3.07,3.04,5.81,5.76,8.77,8.7c-5.12,2.43-10.49,5.46-16.21,7.58
		c-6.27,2.33-8.36,6.65-8.31,12.87c0.11,12.37,0.04,24.74-0.01,37.11c-0.02,4.37-2.59,7.2-6.21,6.82c-3.18-0.34-5.34-2.25-5.33-5.43
		c0.06-15.02,0.05-30.06,0.67-45.07c0.29-7.01,4.48-12.1,10.95-15.12C290.4,208.02,295.74,205.44,300.7,203.08z"/>
	<path class="st1" d="M353.76,211.82c2.95-3.01,5.65-5.77,8.62-8.81c5.58,2.66,11.85,5.27,17.73,8.56
		c7.06,3.94,9.5,10.82,9.62,18.45c0.21,13.34,0.14,26.68,0.09,40.02c-0.02,3.71-2.51,6.15-5.81,6.14c-3.3-0.01-5.75-2.46-5.77-6.17
		c-0.08-11.52-0.02-23.04-0.05-34.56c0-2.18-0.13-4.36-0.24-6.54c-0.22-4.34-2.42-7.04-6.45-8.77
		C365.4,217.53,359.48,214.53,353.76,211.82z"/>
	<path class="st1" d="M232.53,159.67c6.43,0,12.87-0.03,19.3,0.01c4.28,0.03,6.89,2.29,6.88,5.82c-0.01,3.52-2.63,5.79-6.91,5.8
		c-12.87,0.03-25.73,0.04-38.6,0c-4.29-0.01-6.89-2.29-6.88-5.83c0.01-3.55,2.59-5.77,6.9-5.8
		C219.66,159.64,226.09,159.67,232.53,159.67z"/>
	<path class="st1" d="M223.8,182.99c3.76,0,7.53-0.08,11.29,0.02c3.71,0.1,6.16,2.52,6.14,5.82c-0.02,3.29-2.48,5.72-6.2,5.77
		c-7.52,0.09-15.05,0.1-22.57,0c-3.71-0.05-6.15-2.52-6.13-5.82c0.02-3.31,2.45-5.67,6.19-5.77
		C216.27,182.91,220.04,182.99,223.8,182.99z"/>
	<path class="st1" d="M115.96,378.38c0,2.79,0.1,5.59-0.02,8.37c-0.16,3.63-2.71,6.09-5.98,5.98c-3.15-0.11-5.52-2.49-5.59-5.99
		c-0.11-5.7-0.11-11.41,0-17.11c0.07-3.51,2.44-5.87,5.61-5.97c3.3-0.1,5.82,2.33,5.97,5.99
		C116.06,372.55,115.96,375.47,115.96,378.38z"/>
	<path class="st1" d="M185.89,378.42c0,2.79,0.1,5.59-0.03,8.37c-0.15,3.49-2.5,5.86-5.65,5.94c-3.29,0.08-5.85-2.37-5.92-6.03
		c-0.11-5.7-0.12-11.41,0-17.11c0.07-3.5,2.48-5.86,5.64-5.94c3.3-0.08,5.79,2.35,5.94,6.02
		C185.98,372.59,185.89,375.5,185.89,378.42z"/>
	<path class="st1" d="M302.46,264.3c0-1.82-0.09-3.65,0.01-5.46c0.2-3.48,2.52-5.84,5.69-5.9c3.17-0.06,5.74,2.26,5.87,5.7
		c0.16,4,0.17,8.01-0.01,12.01c-0.15,3.24-2.63,5.49-5.65,5.55c-3.17,0.06-5.66-2.27-5.88-5.7
		C302.35,268.43,302.46,266.36,302.46,264.3z"/>
	<path class="st1" d="M349.1,264.59c0-2.06-0.14-4.14,0.03-6.19c0.26-3.23,2.69-5.45,5.73-5.47c3.03-0.02,5.61,2.19,5.77,5.41
		c0.2,4.12,0.2,8.26,0.01,12.37c-0.15,3.23-2.69,5.45-5.72,5.47c-3.03,0.02-5.51-2.2-5.78-5.41
		C348.96,268.73,349.1,266.65,349.1,264.59z"/>
</g>
</svg>
