<?xml version="1.0" encoding="utf-8"?>
<!-- Generator: Adobe Illustrator 24.3.0, SVG Export Plug-In . SVG Version: 6.00 Build 0)  -->
<svg version="1.1" id="Layer_1" xmlns="http://www.w3.org/2000/svg" xmlns:xlink="http://www.w3.org/1999/xlink" x="0px" y="0px"
	 viewBox="0 0 500 500" style="enable-background:new 0 0 500 500;" xml:space="preserve">
<style type="text/css">
	.st0{fill:#1E88A2;}
	.st1{fill:#DB903E;}
	.st2{fill:#2B9BAD;}
	.st3{fill:#D89552;}
</style>
<g>
	<path class="st1" d="M432.39,403.19c-13.93-14.29-28.16-28.29-42.29-42.38c-2.69-2.68-5.96-3.96-9.81-3.81
		c-4.15,0.17-5.67-1.79-4.41-5.87c0.47-1.52,1.38-2.92,2.15-4.34c23.92-44.14,0.4-99.32-48.03-112.5c-4.9-1.33-9.97-2.04-15.5-3.14
		c0-1.53,0-3.02,0-4.51c0-24.82-0.15-49.65,0.08-74.47c0.08-8.43-2.74-15.15-8.68-21.04c-20.47-20.28-40.84-40.66-61.12-61.13
		c-5.88-5.94-12.63-8.72-21.04-8.69c-51.27,0.14-102.54,0.07-153.81,0.07c-1,0-2-0.04-2.99,0.03c-3.06,0.19-4.79,1.9-5.22,4.87
		c-0.18,1.23-0.11,2.49-0.11,3.74c0,100.92,0,201.84,0,302.76c0,1.12-0.07,2.26,0.06,3.36c0.36,3.15,2.06,5.01,5.34,5.15
		c1.37,0.06,2.74,0.04,4.12,0.04c67.74,0,135.47-0.01,203.21,0.04c2.07,0,4.27,0.23,6.19,0.94c23.09,8.6,45.44,7.05,67.13-4.59
		c1.41-0.76,2.9-1.55,4.45-1.83c3.44-0.62,4.94,0.88,4.67,4.35c-0.31,3.98,0.99,7.35,3.8,10.16c14.02,14.03,27.97,28.13,42.1,42.04
		c8.39,8.27,21.12,8.26,29.32,0.33C440.27,424.76,440.69,411.71,432.39,403.19z M251.79,92.75c10.49,10.48,20.85,20.83,31.26,31.23
		c-10.18,0-20.61,0-31.26,0C251.79,113.61,251.79,103.22,251.79,92.75z M259.41,370.58c-62.21,0-124.48,0-187.03,0
		c0-99.52,0-198.95,0-298.72c1.51,0,2.86,0,4.21,0c49.14,0,98.28,0,147.43,0c10.48,0,17.03,6.47,17.07,16.95
		c0.05,12.1,0.01,24.2,0.01,36.3c0,8.95,0.75,9.68,9.86,9.68c11.97,0,23.95-0.02,35.92,0.01c10.67,0.02,17.15,6.56,17.15,17.25
		c0.01,25.07,0,50.14,0,75.21c0,1.34,0,2.68,0,4.05c-4.65,0.82-8.98,1.34-13.19,2.36c-12.71,3.08-23.88,9.14-33.76,17.72
		c-1.5,1.3-3.88,2.23-5.86,2.24c-21.95,0.16-43.9,0.05-65.85,0.19c-1.92,0.01-4.31,0.77-5.58,2.07c-0.99,1.01-1.39,3.94-0.63,5.03
		c1.08,1.57,3.43,3.09,5.29,3.15c9.59,0.31,19.2,0.15,28.81,0.15c10.56,0,21.13,0,32.42,0c-7.5,11.1-12.19,22.38-13.69,34.87
		c-0.3,2.48-2.05,2.07-3.61,2.07c-13.97,0.01-27.94,0-41.91,0.03c-1.48,0-3.41-0.27-4.34,0.52c-1.53,1.29-3.4,3.41-3.29,5.06
		c0.11,1.65,2.29,3.38,3.91,4.61c0.82,0.62,2.41,0.26,3.66,0.26c13.47,0.01,26.94,0.01,40.41,0.01c1.35,0,2.7,0,4.09,0
		c0.7,5.52,1.36,10.65,2.06,16.16c-1.58,0-2.93,0-4.28,0c-14.47,0-28.94-0.01-43.4,0.01c-4.37,0.01-6.74,1.89-6.73,5.23
		c0.01,3.33,2.41,5.23,6.77,5.23c15.84,0.02,31.68,0.08,47.52-0.06c2.73-0.02,4.17,0.66,5.3,3.31
		c4.32,10.12,10.84,18.72,18.97,26.12c0.83,0.75,1.63,1.54,2.43,2.32C259.55,370.02,259.47,370.19,259.41,370.58z M342.03,368.72
		c-23.56,12.4-47.17,11.99-69.5-2.56c-22.32-14.54-32.43-35.98-30.59-62.54c2.31-33.34,30.72-60.21,64.58-61.69
		c33.43-1.46,63.62,22.71,69.33,55.42c2.66,15.26,0.75,29.88-6.63,43.46c-4.24,7.8-6.09,15.21-0.8,22.92
		c-1.68,1.86-3.16,3.51-4.67,5.19C356.29,363.89,349.41,364.83,342.03,368.72z M422.39,426.86c-3.63,1.94-7.22,1.72-10.64-0.46
		c-1.24-0.79-2.3-1.91-3.36-2.96c-12.89-12.86-25.77-25.74-38.64-38.62c-3.39-3.39-3.38-3.77,0-7.17c2.82-2.83,5.7-5.59,8.44-8.49
		c1.81-1.91,3.34-2.17,5.33-0.18c13.63,13.71,27.38,27.3,40.92,41.1c1.88,1.92,2.78,4.8,3.54,6.17
		C427.64,421.7,426.04,424.9,422.39,426.86z"/>
	<path class="st1" d="M110.06,126.01c14.46,0.01,28.92,0,43.38,0c17.2,0,34.4,0.03,51.6-0.02c6.36-0.02,9.12-2.83,9.2-9.11
		c0.05-3.74,0.03-7.48,0.01-11.22c-0.04-7.25-2.67-9.88-9.95-9.89c-15.95-0.02-31.91,0-47.86,0c-16.2,0-32.41-0.03-48.61,0.02
		c-5.71,0.02-8.79,3.08-8.92,8.74c-0.08,3.49-0.02,6.98-0.02,10.47C98.89,123.65,101.27,126,110.06,126.01z M109.54,106.47
		c31.38,0,62.6,0,94.03,0c0,2.93,0,5.73,0,8.79c-31.34,0-62.55,0-94.03,0C109.54,112.11,109.54,109.41,109.54,106.47z"/>
	<path class="st1" d="M112.89,204.92c12.95,0.15,25.91,0.16,38.86-0.01c8.25-0.11,13.66-5.81,13.75-14.06
		c0.07-6.35,0.01-12.71,0.01-19.06c0-6.48,0.05-12.96-0.01-19.43c-0.08-8.53-5.52-13.96-14.08-14c-12.83-0.06-25.66-0.06-38.49,0
		c-8.41,0.04-13.97,5.63-14.02,14.14c-0.08,12.71-0.08,25.41,0,38.12C98.96,199.08,104.49,204.82,112.89,204.92z M113.82,148.79
		c12.34,0.08,24.69,0.07,37.03,0.01c3.05-0.02,4.26,1.3,4.21,4.29c-0.09,6.23-0.03,12.47-0.03,18.7c0,6.11-0.07,12.22,0.03,18.33
		c0.05,3-1.25,4.37-4.22,4.37c-12.34-0.02-24.69-0.02-37.03,0.01c-3.14,0.01-4.49-1.44-4.47-4.58c0.06-12.22,0.06-24.44,0-36.66
		C109.33,150.12,110.61,148.77,113.82,148.79z"/>
	<path class="st1" d="M165.5,226.24c-0.09-8.14-5.45-13.72-13.52-13.8c-13.08-0.13-26.16-0.12-39.24-0.01
		c-8.24,0.07-13.76,5.67-13.82,13.96c-0.1,12.83-0.09,25.66,0,38.49c0.06,8.24,5.6,13.98,13.79,14.08
		c13.08,0.16,26.16,0.18,39.24-0.01c8.06-0.12,13.45-5.82,13.55-13.85c0.08-6.48,0.02-12.95,0.02-19.43
		C165.51,239.2,165.57,232.72,165.5,226.24z M150.51,268.57c-12.22-0.07-24.43-0.05-36.65-0.01c-3.12,0.01-4.53-1.37-4.51-4.53
		c0.06-12.22,0.06-24.43,0-36.65c-0.02-3.13,1.24-4.54,4.45-4.52c12.34,0.07,24.68,0.06,37.03,0.01c3-0.01,4.29,1.25,4.25,4.27
		c-0.09,6.23-0.03,12.47-0.03,18.7c0,5.98-0.1,11.97,0.04,17.95C155.16,267.1,153.89,268.59,150.51,268.57z"/>
	<path class="st1" d="M165.5,300.49c-0.08-8.25-5.24-13.84-13.39-13.96c-13.22-0.19-26.45-0.19-39.67-0.01
		c-8.08,0.11-13.46,5.76-13.53,13.9c-0.1,12.85-0.1,25.7,0,38.55c0.06,8.11,5.37,13.87,13.47,14.04
		c13.22,0.27,26.45,0.26,39.67,0.01c8.15-0.16,13.36-5.87,13.45-13.98c0.07-6.36,0.01-12.72,0.01-19.09
		C165.52,313.47,165.57,306.98,165.5,300.49z M155.04,320.15c0,5.98-0.09,11.97,0.04,17.95c0.07,3.2-1.31,4.56-4.43,4.55
		c-12.22-0.03-24.44-0.04-36.65,0.01c-3.33,0.01-4.67-1.49-4.65-4.8c0.08-12.09,0.08-24.19,0-36.28c-0.02-3.36,1.38-4.7,4.7-4.68
		c12.09,0.08,24.19,0.09,36.28-0.01c3.57-0.03,4.87,1.43,4.77,4.94C154.91,307.93,155.04,314.04,155.04,320.15z"/>
	<path class="st1" d="M183.17,179.71c-2.85,0.44-4.51,2.17-4.61,5.01c-0.09,2.86,1.53,4.68,4.31,5.28c1.08,0.23,2.23,0.13,3.35,0.13
		c13.83,0.01,27.65,0,41.48,0c5.73,0,11.46,0,17.19,0c8.84,0,17.69,0.05,26.53-0.04c3.7-0.04,5.84-2.23,5.72-5.45
		c-0.12-3.07-2.18-4.85-5.79-4.99c-0.37-0.01-0.75,0-1.12,0c-28.28,0-56.55,0-84.83,0C184.66,179.66,183.9,179.6,183.17,179.71z"/>
	<path class="st1" d="M185.27,237.53c10.98,0.03,21.95,0.01,32.93,0.01c11.35,0,22.7,0.03,34.05-0.02c4.1-0.02,6.28-1.99,6.18-5.32
		c-0.1-3.25-2.29-5.1-6.51-5.11c-22.2-0.05-44.41-0.04-66.61-0.01c-4.37,0.01-6.79,1.98-6.81,5.26
		C178.49,235.64,180.87,237.52,185.27,237.53z"/>
	<path class="st1" d="M183.22,153.17c-3.05,0.45-4.75,2.31-4.64,5.34c0.1,2.83,1.79,4.58,4.7,4.89c1.11,0.12,2.24,0.11,3.36,0.11
		c10.6,0.01,21.2,0,31.81,0c10.23,0,20.46,0.01,30.68-0.01c1.62,0,3.26,0.05,4.85-0.15c2.7-0.34,4.27-1.99,4.42-4.72
		c0.16-2.89-1.27-4.76-4.12-5.36c-1.08-0.23-2.23-0.23-3.35-0.23c-21.58-0.01-43.16-0.01-64.74,0
		C185.2,153.04,184.2,153.02,183.22,153.17z"/>
	<path class="st1" d="M308.99,252.88c-31.2,0.12-56.54,25.57-56.52,56.76c0.02,31.3,25.67,56.83,56.98,56.72
		c31.43-0.11,56.71-25.56,56.62-57C365.99,277.99,340.48,252.75,308.99,252.88z M337.9,346.02c-8.31,6.32-17.6,9.71-28.05,9.82
		c-10.86,0.11-20.51-3.29-29.18-9.83c-1.99-1.5-2.14-2.89-1.38-5.03c4.42-12.54,16.74-21.2,30.19-21.09
		c13.48,0.1,25.32,8.56,29.81,21.06C340.1,343.2,339.82,344.56,337.9,346.02z M296.98,296.87c0.01-6.85,5.45-12.35,12.26-12.39
		c6.88-0.04,12.66,5.78,12.53,12.6c-0.13,6.79-5.71,12.19-12.55,12.15C302.34,309.19,296.98,303.77,296.98,296.87z M348.11,334.52
		c-4.81-9.87-11.91-17.2-22.1-21.71c5.16-6.47,7.51-13.42,5.52-21.37c-1.35-5.4-4.31-9.77-8.8-13.05
		c-9.16-6.69-21.73-5.61-29.73,2.45c-7.31,7.38-9.78,20.67-0.52,31.75c-13.2,8.03-15.44,10.25-21.82,21.55
		c-9.47-11.52-12.27-36.95,3.87-55.04c16.52-18.52,43.55-21.12,63.09-6.08C356.46,287.5,361.31,314.75,348.11,334.52z"/>
	<path class="st1" d="M121.07,182.37c2.81,4.72,6.03,5.2,9.89,1.4c5.67-5.59,11.29-11.23,16.89-16.89c3.08-3.1,3.36-6.09,0.92-8.45
		c-2.3-2.23-5.46-1.83-8.48,1.2c-4.13,4.13-8.2,8.32-12.75,12.95c-1.16-1.98-2.03-3.47-2.91-4.95c-2.23-3.72-5.05-4.81-7.93-3.09
		c-2.82,1.69-3.21,4.68-1.05,8.48C117.42,176.15,119.22,179.27,121.07,182.37z"/>
	<path class="st1" d="M140.37,233.62c-4.22,4.21-8.37,8.48-12.79,12.97c-1.24-2.05-2.23-3.75-3.28-5.42
		c-1.98-3.16-4.83-4.15-7.51-2.63c-2.69,1.53-3.35,4.52-1.56,7.78c1.91,3.49,3.91,6.93,5.96,10.33c2.7,4.48,5.95,4.93,9.68,1.26
		c5.68-5.58,11.29-11.23,16.9-16.88c3.12-3.14,3.45-6.05,1.08-8.45C146.58,230.28,143.36,230.63,140.37,233.62z"/>
	<path class="st1" d="M146.33,312.99c2.44-2.55,2.46-5.43,0.29-7.61c-2.12-2.13-5.14-2.15-7.62,0.29c-2.2,2.17-4.11,4.64-6.53,7.41
		c-2.69-2.91-4.63-5.19-6.76-7.26c-2.62-2.55-5.77-2.61-7.91-0.36c-2.1,2.21-2.02,5.07,0.46,7.64c2.06,2.13,4.33,4.06,7.14,6.67
		c-2.87,2.63-5.18,4.55-7.24,6.7c-2.42,2.53-2.41,5.5-0.26,7.64c2.09,2.07,5.19,2.02,7.65-0.35c2.21-2.12,4.23-4.44,6.79-7.16
		c2.36,2.61,4.19,4.82,6.21,6.83c2.6,2.59,5.79,2.82,7.96,0.79c2.38-2.23,2.24-5.34-0.59-8.17c-2.07-2.07-4.34-3.94-6.91-6.24
		C141.98,317.07,144.27,315.14,146.33,312.99z"/>
</g>
</svg>
